<svg width="20" height="20" viewBox="0 0 20 20" fill="none" xmlns="http://www.w3.org/2000/svg">
<g clip-path="url(#clip0_6_27)">
<path d="M17 0H3C1.34315 0 0 1.34315 0 3V17C0 18.6569 1.34315 20 3 20H17C18.6569 20 20 18.6569 20 17V3C20 1.34315 18.6569 0 17 0Z" fill="#5672D9"/>
<path d="M10.04 14H14.42V17H6.12V2.89999H10.04V14Z" fill="white"/>
<path d="M2.88852 12.5242L1 10.2673L2.88852 8H5.3082L3.41967 10.2673L5.3082 12.5242H2.88852Z" fill="#F1D84A"/>
<path d="M16.4196 8.00003L18.3082 10.257L16.4196 12.5243H14L15.8885 10.257L14 8.00003H16.4196Z" fill="#F1D84A"/>
<path d="M16.02 18.16C15.3267 18.16 14.7667 17.9733 14.34 17.6C13.9267 17.2133 13.72 16.7267 13.72 16.14C13.72 15.5533 13.9267 15.0667 14.34 14.68C14.7667 14.2933 15.3267 14.1 16.02 14.1C16.7 14.1 17.2467 14.2933 17.66 14.68C18.0867 15.0667 18.3 15.5533 18.3 16.14C18.3 16.7133 18.0867 17.1933 17.66 17.58C17.2467 17.9667 16.7 18.16 16.02 18.16Z" fill="#F1D84A"/>
</g>
<defs>
<clipPath id="clip0_6_27">
<rect width="20" height="20" fill="white"/>
</clipPath>
</defs>
</svg>
